<svg xmlns="http://www.w3.org/2000/svg" xmlns:xlink="http://www.w3.org/1999/xlink" width="1920" height="1065" version="1.1">
<style type="text/css">
.l0{
  fill: #ffffff;
  stroke: #ffffff;
  stroke-linecap:round;
  stroke-linejoin:round;
  stroke-width: 0.559748;
}
.l1{
  fill: #0044ee;
  stroke: #0044ee;
  stroke-linecap:round;
  stroke-linejoin:round;
  stroke-width: 0.559748;
}
.l2{
  fill: #aaaaaa; fill-opacity: 0.2;
  stroke: #aaaaaa;
  stroke-linecap:round;
  stroke-linejoin:round;
  stroke-width: 0.559748;
}
.l3{
  fill: #222222; fill-opacity: 0.5;
  stroke: #222222;
  stroke-linecap:round;
  stroke-linejoin:round;
  stroke-width: 0.559748;
}
.l4{
  fill: #229900;
  stroke: #229900;
  stroke-linecap:round;
  stroke-linejoin:round;
  stroke-width: 0.559748;
}
.l5{
  fill: #bb2200;
  stroke: #bb2200;
  stroke-linecap:round;
  stroke-linejoin:round;
  stroke-width: 0.559748;
}
.l6{
  fill: #00ccee; fill-opacity: 0.5;
  stroke: #00ccee;
  stroke-linecap:round;
  stroke-linejoin:round;
  stroke-width: 0.559748;
}
.l7{
  fill: #ff0000; fill-opacity: 0.5;
  stroke: #ff0000;
  stroke-linecap:round;
  stroke-linejoin:round;
  stroke-width: 0.559748;
}
.l8{
  fill: #888800; fill-opacity: 0.5;
  stroke: #888800;
  stroke-linecap:round;
  stroke-linejoin:round;
  stroke-width: 0.559748;
}
.l9{
  fill: #00aaaa; fill-opacity: 0.5;
  stroke: #00aaaa;
  stroke-linecap:round;
  stroke-linejoin:round;
  stroke-width: 0.559748;
}
.l10{
  fill: #880088;
  stroke: #880088;
  stroke-linecap:round;
  stroke-linejoin:round;
  stroke-width: 0.559748;
}
.l11{
  fill: #00ff00; fill-opacity: 0.5;
  stroke: #00ff00;
  stroke-linecap:round;
  stroke-linejoin:round;
  stroke-width: 0.559748;
}
.l12{
  fill: #0000cc; fill-opacity: 0.5;
  stroke: #0000cc;
  stroke-linecap:round;
  stroke-linejoin:round;
  stroke-width: 0.559748;
}
.l13{
  fill: #666600; fill-opacity: 0.5;
  stroke: #666600;
  stroke-linecap:round;
  stroke-linejoin:round;
  stroke-width: 0.559748;
}
.l14{
  fill: #557755; fill-opacity: 0.2;
  stroke: #557755;
  stroke-linecap:round;
  stroke-linejoin:round;
  stroke-width: 0.559748;
}
.l15{
  fill: #aa2222; fill-opacity: 0.5;
  stroke: #aa2222;
  stroke-linecap:round;
  stroke-linejoin:round;
  stroke-width: 0.559748;
}
.l16{
  fill: #7ccc40; fill-opacity: 0.5;
  stroke: #7ccc40;
  stroke-linecap:round;
  stroke-linejoin:round;
  stroke-width: 0.559748;
}
.l17{
  fill: #00ffcc; fill-opacity: 0.2;
  stroke: #00ffcc;
  stroke-linecap:round;
  stroke-linejoin:round;
  stroke-width: 0.559748;
}
.l18{
  fill: #ce0097; fill-opacity: 0.5;
  stroke: #ce0097;
  stroke-linecap:round;
  stroke-linejoin:round;
  stroke-width: 0.559748;
}
.l19{
  fill: #d2d46b; fill-opacity: 0.2;
  stroke: #d2d46b;
  stroke-linecap:round;
  stroke-linejoin:round;
  stroke-width: 0.559748;
}
.l20{
  fill: #ef6158; fill-opacity: 0.2;
  stroke: #ef6158;
  stroke-linecap:round;
  stroke-linejoin:round;
  stroke-width: 0.559748;
}
.l21{
  fill: #fdb200; fill-opacity: 0.2;
  stroke: #fdb200;
  stroke-linecap:round;
  stroke-linejoin:round;
  stroke-width: 0.559748;
}
text {font-family: Sans-Serif;}
</style>
<rect class="l0" x="0" y="0" width="1920" height="1065"/>
<text fill="#0044ee"  xml:space="preserve" font-size="14.5534" transform="translate(1873.56, 601.194)" >sys_out</text>
<text fill="#0044ee"  xml:space="preserve" font-size="17.7875" transform="translate(27.434, 721.889)" >VSS</text>
<text fill="#0044ee"  xml:space="preserve" font-size="14.5534" transform="translate(855.9, 367.965)" >OTA_out</text>
<text fill="#0044ee"  xml:space="preserve" font-size="14.5534" transform="translate(548.832, 357.6)" >V_p</text>
<text fill="#0044ee"  xml:space="preserve" font-size="14.5534" transform="translate(548.832, 378.331)" >V_n</text>
<text fill="#0044ee"  xml:space="preserve" font-size="14.5534" transform="translate(233.592, 554.548)" >V_bjt_n</text>
<text fill="#0044ee"  xml:space="preserve" font-size="14.5534" transform="translate(1163.51, 212.48)" >sys_out</text>
<text fill="#0044ee"  xml:space="preserve" font-size="14.5534" transform="translate(1736.25, 269.491)" >V_cap</text>
<text fill="#222222"  xml:space="preserve" font-size="8.62427" transform="translate(1166.27, 105.062)" >JNWATR_PCH_8C5F0</text>
<text fill="#222222"  xml:space="preserve" font-size="8.62427" transform="translate(1166.27, 58.4163)" >x7[1:0]</text>
<text fill="#222222"  xml:space="preserve" font-size="10.7803" transform="translate(495.089, 636.488)" >pnp_05v5_W3p40L3p40</text>
<text fill="#222222"  xml:space="preserve" font-size="10.7803" transform="translate(495.089, 593.729)" >Q3</text>
<text fill="#ff0000"  xml:space="preserve" font-size="8.08525" transform="translate(482.132, 581.564)" >e</text>
<text fill="#ff0000"  xml:space="preserve" font-size="8.08525" transform="translate(482.132, 646.35)" >c</text>
<text fill="#ff0000"  xml:space="preserve" font-size="8.08525" transform="translate(455.753, 607.478)" >b</text>
<text fill="#222222"  xml:space="preserve" font-size="10.7803" transform="translate(495.089, 623.531)" >m=1</text>
<text fill="#222222"  xml:space="preserve" font-size="10.7803" transform="translate(161.592, 636.488)" >pnp_05v5_W3p40L3p40</text>
<text fill="#222222"  xml:space="preserve" font-size="10.7803" transform="translate(268.592, 593.729)" >Q1</text>
<text fill="#ff0000"  xml:space="preserve" font-size="8.08525" transform="translate(290.55, 581.564)" >e</text>
<text fill="#ff0000"  xml:space="preserve" font-size="8.08525" transform="translate(291.55, 646.35)" >c</text>
<text fill="#ff0000"  xml:space="preserve" font-size="8.08525" transform="translate(316.929, 607.478)" >b</text>
<text fill="#222222"  xml:space="preserve" font-size="10.7803" transform="translate(260.592, 623.531)" >m=5</text>
<text fill="#222222"  xml:space="preserve" font-size="16.1705" transform="translate(800.359, 422.666)" >OTA_Manuel</text>
<text fill="#222222"  xml:space="preserve" font-size="10.7803" transform="translate(725.726, 328.626)" >x11</text>
<text fill="#222222"  xml:space="preserve" font-size="10.7803" transform="translate(704.995, 347.285)" >VDD</text>
<text fill="#222222"  xml:space="preserve" font-size="10.7803" transform="translate(817.932, 373.199)" >I_out</text>
<text fill="#222222"  xml:space="preserve" font-size="10.7803" transform="translate(704.995, 388.747)" >V_n</text>
<text fill="#222222"  xml:space="preserve" font-size="10.7803" transform="translate(704.995, 368.016)" >V_p</text>
<text fill="#222222"  xml:space="preserve" font-size="10.7803" transform="translate(704.995, 409.479)" >VSS</text>
<text fill="#222222"  xml:space="preserve" font-size="8.62427" transform="translate(1041.88, 353.839)" >JNWATR_NCH_2C1F2</text>
<text fill="#222222"  xml:space="preserve" font-size="8.62427" transform="translate(1041.88, 400.484)" >x2</text>
<text fill="#222222"  xml:space="preserve" font-size="8.08525" transform="translate(309.483, 454.299) rotate(270)" >x5</text>
<text fill="#222222"  xml:space="preserve" font-size="8.08525" transform="translate(319.849, 502.299) rotate(270)" >JNWTR_RPPO2</text>
<text fill="#222222"  xml:space="preserve" font-size="8.62427" transform="translate(1632.73, 156.89)" >JNWATR_PCH_2C5F0</text>
<text fill="#222222"  xml:space="preserve" font-size="8.62427" transform="translate(1632.73, 110.245)" >x6</text>
<text fill="#222222"  xml:space="preserve" font-size="8.62427" transform="translate(1691.85, 441.947)" >JNWATR_NCH_2C1F2</text>
<text fill="#222222"  xml:space="preserve" font-size="8.62427" transform="translate(1767.85, 488.593)" >x4</text>
<text fill="#222222"  xml:space="preserve" font-size="10.7803" transform="translate(1624.97, 339.277) rotate(270)" >A</text>
<text fill="#222222"  xml:space="preserve" font-size="10.7803" transform="translate(1626.97, 393.471) rotate(270)" >B</text>
<text fill="#222222"  xml:space="preserve" font-size="13.4754" transform="translate(1663.82, 379.792)" >JNWTR_CAPX4</text>
<text fill="#222222"  xml:space="preserve" font-size="10.7803" transform="translate(1663.82, 361.797)" >x2[0:4]</text>
<text fill="#222222"  xml:space="preserve" font-size="10.7803" transform="translate(940.83, 417.019) rotate(270)" >A</text>
<text fill="#222222"  xml:space="preserve" font-size="10.7803" transform="translate(942.829, 471.214) rotate(270)" >B</text>
<text fill="#222222"  xml:space="preserve" font-size="13.4754" transform="translate(979.686, 457.535)" >JNWTR_CAPX1</text>
<text fill="#222222"  xml:space="preserve" font-size="10.7803" transform="translate(979.686, 439.539)" >x12[0:1]</text>
<text fill="#222222"  xml:space="preserve" font-size="10.7803" transform="translate(1094.51, 626.122)" >pnp_05v5_W3p40L3p40</text>
<text fill="#222222"  xml:space="preserve" font-size="10.7803" transform="translate(1201.51, 583.363)" >Q2</text>
<text fill="#ff0000"  xml:space="preserve" font-size="8.08525" transform="translate(1223.46, 571.198)" >e</text>
<text fill="#ff0000"  xml:space="preserve" font-size="8.08525" transform="translate(1224.46, 635.984)" >c</text>
<text fill="#ff0000"  xml:space="preserve" font-size="8.08525" transform="translate(1249.84, 597.113)" >b</text>
<text fill="#222222"  xml:space="preserve" font-size="10.7803" transform="translate(1193.51, 613.165)" >m=1</text>
<text fill="#222222"  xml:space="preserve" font-size="10.7803" transform="translate(1376.19, 458.482) rotate(270)" >A</text>
<text fill="#222222"  xml:space="preserve" font-size="10.7803" transform="translate(1378.19, 512.676) rotate(270)" >B</text>
<text fill="#222222"  xml:space="preserve" font-size="13.4754" transform="translate(1415.05, 498.998)" >JNWTR_CAPX4</text>
<text fill="#222222"  xml:space="preserve" font-size="10.7803" transform="translate(1415.05, 481.002)" >x1[0:1]</text>
<text fill="#222222"  xml:space="preserve" font-size="8.08525" transform="translate(1242.4, 392.105) rotate(270)" >x7</text>
<text fill="#222222"  xml:space="preserve" font-size="8.08525" transform="translate(1252.76, 440.105) rotate(270)" >JNWTR_RPPO8</text>
<text fill="#222222"  xml:space="preserve" font-size="8.08525" transform="translate(1242.4, 269.985) rotate(270)" >x13[0:2]</text>
<text fill="#222222"  xml:space="preserve" font-size="8.08525" transform="translate(1252.76, 299.985) rotate(270)" >JNWTR_RPPO16</text>
<text fill="#222222"  xml:space="preserve" font-size="8.62427" transform="translate(201.184, 53.2334)" >JNWATR_PCH_4C5F0</text>
<text fill="#222222"  xml:space="preserve" font-size="8.62427" transform="translate(257.184, 6.58773)" >x9[1:0]</text>
<path class="l4" d="M1145.54 98.0482L1166.27 98.0482"/>
<path class="l4" d="M1166.27 98.0482L1166.27 113.597"/>
<path class="l4" d="M1145.54 66.9511L1166.27 66.9511"/>
<path class="l4" d="M1166.27 51.4026L1166.27 66.9511"/>
<path class="l4" d="M1145.54 82.4997L1166.27 82.4997"/>
<path class="l4" d="M1152.79 66.9511L1163.16 61.7683"/>
<path class="l4" d="M1152.79 66.9511L1163.16 72.134"/>
<path class="l4" d="M1145.54 66.9511L1145.54 98.0482"/>
<path class="l4" d="M1140.35 66.9511L1140.35 98.0482"/>
<path class="l4" d="M1124.81 82.4997L1132.06 82.4997"/>
<circle class="l4" cx="1136.21" cy="82.4997" r="4.14628" style="fill:none;" />
<path class="l4" d="M471.766 580.053L471.766 642.248"/>
<path class="l4" d="M451.035 611.151L471.766 611.151"/>
<path class="l4" d="M482.132 590.419L492.498 580.053"/>
<path class="l4" d="M471.766 621.516L492.498 642.248"/>
<path class="l4" d="M471.766 600.785L487.315 595.602L476.949 585.236L471.766 600.785"/>
<path class="l4" d="M305.915 580.053L305.915 642.248"/>
<path class="l4" d="M305.915 611.151L326.647 611.151"/>
<path class="l4" d="M285.184 580.053L295.55 590.419"/>
<path class="l4" d="M285.184 642.248L305.915 621.516"/>
<path class="l4" d="M305.915 600.785L290.367 595.602L300.732 585.236L305.915 600.785"/>
<path class="l4" d="M699.812 331.277L699.812 414.202"/>
<path class="l4" d="M679.081 341.642L699.812 341.642"/>
<path class="l4" d="M679.081 403.837L699.812 403.837"/>
<path class="l4" d="M679.081 362.374L699.812 362.374"/>
<path class="l4" d="M679.081 383.105L699.812 383.105"/>
<path class="l4" d="M813.835 331.277L855.298 372.739"/>
<path class="l4" d="M699.812 331.277L813.835 331.277"/>
<path class="l4" d="M699.812 414.202L813.835 414.202"/>
<path class="l4" d="M813.835 414.202L855.298 372.739"/>
<path class="l4" d="M772.372 372.739L782.738 372.739"/>
<path class="l4" d="M767.189 383.105L777.555 362.374"/>
<path class="l4" d="M777.555 362.374L787.92 383.105"/>
<path class="l4" d="M756.823 362.374L767.189 362.374"/>
<path class="l4" d="M762.006 362.374L762.006 383.105"/>
<path class="l4" d="M741.275 362.374L751.64 362.374"/>
<path class="l4" d="M741.275 362.374L741.275 383.105"/>
<path class="l4" d="M741.275 383.105L751.64 383.105"/>
<path class="l4" d="M751.64 362.374L751.64 383.105"/>
<path class="l4" d="M1031.51 383.105L1041.88 388.288"/>
<path class="l4" d="M1031.51 393.471L1041.88 388.288"/>
<path class="l4" d="M1021.15 357.191L1041.88 357.191"/>
<path class="l4" d="M1041.88 341.642L1041.88 357.191"/>
<path class="l4" d="M1021.15 388.288L1041.88 388.288"/>
<path class="l4" d="M1041.88 388.288L1041.88 403.837"/>
<path class="l4" d="M1021.15 372.739L1041.88 372.739"/>
<path class="l4" d="M1021.15 357.191L1021.15 388.288"/>
<path class="l4" d="M1015.97 357.191L1015.97 388.288"/>
<path class="l4" d="M1000.42 372.739L1015.97 372.739"/>
<path class="l4" d="M264.452 476.396L280.001 476.396"/>
<path class="l4" d="M285.184 507.494L285.184 517.859"/>
<path class="l4" d="M285.184 434.934L285.184 445.299"/>
<path class="l4" d="M277.928 463.958L277.928 488.835"/>
<path class="l4" d="M285.184 501.274L285.184 507.494"/>
<path class="l4" d="M285.184 445.299L285.184 451.519"/>
<path class="l4" d="M278.964 454.628L285.184 451.519"/>
<path class="l4" d="M278.964 454.628L291.403 460.848"/>
<path class="l4" d="M278.964 467.067L291.403 460.848"/>
<path class="l4" d="M278.964 467.067L291.403 473.287"/>
<path class="l4" d="M278.964 479.506L291.403 473.287"/>
<path class="l4" d="M278.964 479.506L291.403 485.726"/>
<path class="l4" d="M278.964 491.945L291.403 485.726"/>
<path class="l4" d="M278.964 491.945L291.403 498.164"/>
<path class="l4" d="M285.184 501.274L291.403 498.164"/>
<path class="l4" d="M1611.99 149.877L1632.73 149.877"/>
<path class="l4" d="M1632.73 149.877L1632.73 165.425"/>
<path class="l4" d="M1611.99 118.78L1632.73 118.78"/>
<path class="l4" d="M1632.73 103.231L1632.73 118.78"/>
<path class="l4" d="M1611.99 134.328L1632.73 134.328"/>
<path class="l4" d="M1619.25 118.78L1629.62 113.597"/>
<path class="l4" d="M1619.25 118.78L1629.62 123.962"/>
<path class="l4" d="M1611.99 118.78L1611.99 149.877"/>
<path class="l4" d="M1606.81 118.78L1606.81 149.877"/>
<path class="l4" d="M1591.26 134.328L1598.52 134.328"/>
<circle class="l4" cx="1602.66" cy="134.328" r="4.14628" style="fill:none;" />
<path class="l4" d="M1777.85 476.396L1788.21 471.214"/>
<path class="l4" d="M1777.85 476.396L1788.21 481.579"/>
<path class="l4" d="M1777.85 445.299L1798.58 445.299"/>
<path class="l4" d="M1777.85 429.751L1777.85 445.299"/>
<path class="l4" d="M1777.85 476.396L1798.58 476.396"/>
<path class="l4" d="M1777.85 476.396L1777.85 491.945"/>
<path class="l4" d="M1777.85 460.848L1798.58 460.848"/>
<path class="l4" d="M1798.58 445.299L1798.58 476.396"/>
<path class="l4" d="M1803.76 445.299L1803.76 476.396"/>
<path class="l4" d="M1803.76 460.848L1819.31 460.848"/>
<path class="l4" d="M1632.73 326.094L1632.73 346.825"/>
<path class="l4" d="M1632.73 377.922L1632.73 398.654"/>
<path class="l4" d="M1611.99 357.191L1653.46 357.191"/>
<path class="l4" d="M1611.99 367.557L1653.46 367.557"/>
<path class="l4" d="M1632.73 346.825L1632.73 357.191"/>
<path class="l4" d="M1632.73 367.557L1632.73 377.922"/>
<path class="l4" d="M948.589 403.837L948.589 424.568"/>
<path class="l4" d="M948.589 455.665L948.589 476.396"/>
<path class="l4" d="M927.857 434.934L969.32 434.934"/>
<path class="l4" d="M927.857 445.299L969.32 445.299"/>
<path class="l4" d="M948.589 424.568L948.589 434.934"/>
<path class="l4" d="M948.589 445.299L948.589 455.665"/>
<path class="l4" d="M1238.83 569.688L1238.83 631.882"/>
<path class="l4" d="M1238.83 600.785L1259.56 600.785"/>
<path class="l4" d="M1218.1 569.688L1228.46 580.053"/>
<path class="l4" d="M1218.1 631.882L1238.83 611.151"/>
<path class="l4" d="M1238.83 590.419L1223.28 585.236L1233.65 574.871L1238.83 590.419"/>
<path class="l4" d="M1383.95 445.299L1383.95 466.031"/>
<path class="l4" d="M1383.95 497.128L1383.95 517.859"/>
<path class="l4" d="M1363.22 476.396L1404.68 476.396"/>
<path class="l4" d="M1363.22 486.762L1404.68 486.762"/>
<path class="l4" d="M1383.95 466.031L1383.95 476.396"/>
<path class="l4" d="M1383.95 486.762L1383.95 497.128"/>
<path class="l4" d="M1197.37 414.202L1212.91 414.202"/>
<path class="l4" d="M1218.1 445.299L1218.1 455.665"/>
<path class="l4" d="M1218.1 372.739L1218.1 383.105"/>
<path class="l4" d="M1210.84 401.763L1210.84 426.641"/>
<path class="l4" d="M1218.1 439.08L1218.1 445.299"/>
<path class="l4" d="M1218.1 383.105L1218.1 389.325"/>
<path class="l4" d="M1211.88 392.434L1218.1 389.325"/>
<path class="l4" d="M1211.88 392.434L1224.32 398.654"/>
<path class="l4" d="M1211.88 404.873L1224.32 398.654"/>
<path class="l4" d="M1211.88 404.873L1224.32 411.093"/>
<path class="l4" d="M1211.88 417.312L1224.32 411.093"/>
<path class="l4" d="M1211.88 417.312L1224.32 423.531"/>
<path class="l4" d="M1211.88 429.751L1224.32 423.531"/>
<path class="l4" d="M1211.88 429.751L1224.32 435.97"/>
<path class="l4" d="M1218.1 439.08L1224.32 435.97"/>
<path class="l4" d="M1197.37 269.082L1212.91 269.082"/>
<path class="l4" d="M1218.1 300.179L1218.1 310.545"/>
<path class="l4" d="M1218.1 227.62L1218.1 237.985"/>
<path class="l4" d="M1210.84 256.644L1210.84 281.521"/>
<path class="l4" d="M1218.1 293.96L1218.1 300.179"/>
<path class="l4" d="M1218.1 237.985L1218.1 244.205"/>
<path class="l4" d="M1211.88 247.314L1218.1 244.205"/>
<path class="l4" d="M1211.88 247.314L1224.32 253.534"/>
<path class="l4" d="M1211.88 259.753L1224.32 253.534"/>
<path class="l4" d="M1211.88 259.753L1224.32 265.973"/>
<path class="l4" d="M1211.88 272.192L1224.32 265.973"/>
<path class="l4" d="M1211.88 272.192L1224.32 278.411"/>
<path class="l4" d="M1211.88 284.631L1224.32 278.411"/>
<path class="l4" d="M1211.88 284.631L1224.32 290.85"/>
<path class="l4" d="M1218.1 293.96L1224.32 290.85"/>
<path class="l4" d="M285.184 46.2197L305.915 46.2197"/>
<path class="l4" d="M285.184 46.2197L285.184 61.7683"/>
<path class="l4" d="M285.184 15.1226L305.915 15.1226"/>
<path class="l4" d="M285.184 0L285.184 15.1226"/>
<path class="l4" d="M285.184 30.6712L305.915 30.6712"/>
<path class="l4" d="M288.294 9.93975L298.659 15.1226"/>
<path class="l4" d="M288.294 20.3055L298.659 15.1226"/>
<path class="l4" d="M305.915 15.1226L305.915 46.2197"/>
<path class="l4" d="M311.098 15.1226L311.098 46.2197"/>
<path class="l4" d="M319.391 30.6712L326.647 30.6712"/>
<circle class="l4" cx="315.244" cy="30.6712" r="4.14628" style="fill:none;" />
<path class="l5" d="M72.6869 714.808L77.8697 714.808"/>
<path class="l5" d="M72.6869 714.808L68.7997 709.625L59.7297 709.625L63.6169 714.808L59.7297 719.99L68.7997 719.99L72.6869 714.808"/>
<path class="l5" d="M76.574 713.512L79.1654 713.512L79.1654 716.103L76.574 716.103L76.574 713.512z"/>
<path class="l5" d="M1162.12 109.451L1170.41 109.451L1170.41 117.743L1162.12 117.743L1162.12 109.451z"/>
<path class="l5" d="M1120.66 78.3534L1128.95 78.3534L1128.95 86.646L1120.66 86.646L1120.66 78.3534z"/>
<path class="l5" d="M1162.12 47.2563L1170.41 47.2563L1170.41 55.5489L1162.12 55.5489L1162.12 47.2563z"/>
<path class="l5" d="M1162.12 78.3534L1170.41 78.3534L1170.41 86.646L1162.12 86.646L1162.12 78.3534z"/>
<path class="l5" d="M489.906 639.656L495.089 639.656L495.089 644.839L489.906 644.839L489.906 639.656z"/>
<path class="l5" d="M448.444 608.559L453.626 608.559L453.626 613.742L448.444 613.742L448.444 608.559z"/>
<path class="l5" d="M489.906 577.462L495.089 577.462L495.089 582.645L489.906 582.645L489.906 577.462z"/>
<path class="l5" d="M282.592 639.656L287.775 639.656L287.775 644.839L282.592 644.839L282.592 639.656z"/>
<path class="l5" d="M324.055 608.559L329.238 608.559L329.238 613.742L324.055 613.742L324.055 608.559z"/>
<path class="l5" d="M282.592 577.462L287.775 577.462L287.775 582.645L282.592 582.645L282.592 577.462z"/>
<path class="l5" d="M916.196 371.444L918.787 371.444L918.787 374.035L916.196 374.035L916.196 371.444z"/>
<path class="l5" d="M574.128 361.078L576.719 361.078L576.719 363.669L574.128 363.669L574.128 361.078z"/>
<path class="l5" d="M574.128 381.809L576.719 381.809L576.719 384.401L574.128 384.401L574.128 381.809z"/>
<path class="l5" d="M676.489 339.051L681.672 339.051L681.672 344.234L676.489 344.234L676.489 339.051z"/>
<path class="l5" d="M852.706 370.148L857.889 370.148L857.889 375.331L852.706 375.331L852.706 370.148z"/>
<path class="l5" d="M676.489 380.514L681.672 380.514L681.672 385.697L676.489 385.697L676.489 380.514z"/>
<path class="l5" d="M676.489 359.782L681.672 359.782L681.672 364.965L676.489 364.965L676.489 359.782z"/>
<path class="l5" d="M676.489 401.245L681.672 401.245L681.672 406.428L676.489 406.428L676.489 401.245z"/>
<path class="l5" d="M283.888 558.026L286.48 558.026L286.48 560.618L283.888 560.618L283.888 558.026z"/>
<path class="l5" d="M1037.73 337.496L1046.03 337.496L1046.03 345.789L1037.73 345.789L1037.73 337.496z"/>
<path class="l5" d="M996.271 368.593L1004.56 368.593L1004.56 376.886L996.271 376.886L996.271 368.593z"/>
<path class="l5" d="M1037.73 399.69L1046.03 399.69L1046.03 407.983L1037.73 407.983L1037.73 399.69z"/>
<path class="l5" d="M1037.73 368.593L1046.03 368.593L1046.03 376.886L1037.73 376.886L1037.73 368.593z"/>
<path class="l5" d="M281.038 513.713L289.33 513.713L289.33 522.006L281.038 522.006L281.038 513.713z"/>
<path class="l5" d="M281.038 430.787L289.33 430.787L289.33 439.08L281.038 439.08L281.038 430.787z"/>
<path class="l5" d="M260.306 472.25L268.599 472.25L268.599 480.543L260.306 480.543L260.306 472.25z"/>
<path class="l5" d="M1628.58 161.279L1636.87 161.279L1636.87 169.572L1628.58 169.572L1628.58 161.279z"/>
<path class="l5" d="M1587.12 130.182L1595.41 130.182L1595.41 138.474L1587.12 138.474L1587.12 130.182z"/>
<path class="l5" d="M1628.58 99.0848L1636.87 99.0848L1636.87 107.377L1628.58 107.377L1628.58 99.0848z"/>
<path class="l5" d="M1628.58 130.182L1636.87 130.182L1636.87 138.474L1628.58 138.474L1628.58 130.182z"/>
<path class="l5" d="M1773.7 425.604L1781.99 425.604L1781.99 433.897L1773.7 433.897L1773.7 425.604z"/>
<path class="l5" d="M1815.16 456.702L1823.45 456.702L1823.45 464.994L1815.16 464.994L1815.16 456.702z"/>
<path class="l5" d="M1773.7 487.799L1781.99 487.799L1781.99 496.091L1773.7 496.091L1773.7 487.799z"/>
<path class="l5" d="M1773.7 456.702L1781.99 456.702L1781.99 464.994L1773.7 464.994L1773.7 456.702z"/>
<path class="l5" d="M1630.13 323.502L1635.32 323.502L1635.32 328.685L1630.13 328.685L1630.13 323.502z"/>
<path class="l5" d="M1630.13 396.062L1635.32 396.062L1635.32 401.245L1630.13 401.245L1630.13 396.062z"/>
<path class="l5" d="M1216.8 215.958L1219.39 215.958L1219.39 218.55L1216.8 218.55L1216.8 215.958z"/>
<path class="l5" d="M1776.55 272.969L1779.14 272.969L1779.14 275.561L1776.55 275.561L1776.55 272.969z"/>
<path class="l5" d="M945.997 401.245L951.18 401.245L951.18 406.428L945.997 406.428L945.997 401.245z"/>
<path class="l5" d="M945.997 473.805L951.18 473.805L951.18 478.988L945.997 478.988L945.997 473.805z"/>
<path class="l5" d="M1215.51 629.291L1220.69 629.291L1220.69 634.473L1215.51 634.473L1215.51 629.291z"/>
<path class="l5" d="M1256.97 598.193L1262.15 598.193L1262.15 603.376L1256.97 603.376L1256.97 598.193z"/>
<path class="l5" d="M1215.51 567.096L1220.69 567.096L1220.69 572.279L1215.51 572.279L1215.51 567.096z"/>
<path class="l5" d="M1381.36 442.708L1386.54 442.708L1386.54 447.891L1381.36 447.891L1381.36 442.708z"/>
<path class="l5" d="M1381.36 515.268L1386.54 515.268L1386.54 520.451L1381.36 520.451L1381.36 515.268z"/>
<path class="l5" d="M1213.95 451.519L1222.24 451.519L1222.24 459.811L1213.95 459.811L1213.95 451.519z"/>
<path class="l5" d="M1213.95 368.593L1222.24 368.593L1222.24 376.886L1213.95 376.886L1213.95 368.593z"/>
<path class="l5" d="M1193.22 410.056L1201.51 410.056L1201.51 418.348L1193.22 418.348L1193.22 410.056z"/>
<path class="l5" d="M1213.95 306.399L1222.24 306.399L1222.24 314.691L1213.95 314.691L1213.95 306.399z"/>
<path class="l5" d="M1213.95 223.473L1222.24 223.473L1222.24 231.766L1213.95 231.766L1213.95 223.473z"/>
<path class="l5" d="M1193.22 264.936L1201.51 264.936L1201.51 273.229L1193.22 273.229L1193.22 264.936z"/>
<path class="l5" d="M281.038 57.622L289.33 57.622L289.33 65.9146L281.038 65.9146L281.038 57.622z"/>
<path class="l5" d="M322.5 26.5249L330.793 26.5249L330.793 34.8174L322.5 34.8174L322.5 26.5249z"/>
<path class="l5" d="M281.038 -2L289.33 -2L289.33 3.72033L281.038 3.72033L281.038 -2z"/>
<path class="l5" d="M281.038 26.5249L289.33 26.5249L289.33 34.8174L281.038 34.8174L281.038 26.5249z"/>
<path class="l1" d="M1819.31 460.848L1881.5 460.848"/>
<path class="l1" d="M285.184 517.859L285.184 580.053"/>
<path class="l1" d="M388.841 611.151L451.035 611.151"/>
<path class="l1" d="M285.184 642.248L285.184 714.808"/>
<path class="l1" d="M492.498 642.248L492.498 714.808"/>
<path class="l1" d="M388.841 611.151L388.841 714.808"/>
<path class="l1" d="M388.841 714.808L492.498 714.808"/>
<path class="l1" d="M160.795 714.808L285.184 714.808"/>
<path class="l1" d="M285.184 383.105L285.184 434.934"/>
<path class="l1" d="M492.498 714.808L575.424 714.808"/>
<path class="l1" d="M948.589 372.739L1000.42 372.739"/>
<path class="l1" d="M1041.88 372.739L1083.34 372.739"/>
<path class="l1" d="M1041.88 82.4997L1041.88 341.642"/>
<path class="l1" d="M1166.27 113.597L1166.27 175.791"/>
<path class="l1" d="M1166.27 82.4997L1207.73 82.4997"/>
<path class="l1" d="M948.589 82.4997L1124.81 82.4997"/>
<path class="l1" d="M1166.27 0L1166.27 51.4026"/>
<path class="l1" d="M1207.73 0L1207.73 82.4997"/>
<path class="l1" d="M160.795 476.396L264.452 476.396"/>
<path class="l1" d="M948.589 476.396L948.589 528.225"/>
<path class="l1" d="M948.589 372.739L948.589 403.837"/>
<path class="l1" d="M326.647 611.151L388.841 611.151"/>
<path class="l1" d="M285.184 714.808L388.841 714.808"/>
<path class="l1" d="M1041.88 403.837L1041.88 486.762"/>
<path class="l1" d="M129.698 714.808L160.795 714.808"/>
<path class="l1" d="M575.424 362.374L606.521 362.374"/>
<path class="l1" d="M575.424 383.105L606.521 383.105"/>
<path class="l1" d="M285.184 383.105L575.424 383.105"/>
<path class="l1" d="M492.498 362.374L575.424 362.374"/>
<path class="l1" d="M1218.1 455.665L1218.1 507.494"/>
<path class="l1" d="M575.424 714.808L1083.34 714.808"/>
<path class="l1" d="M948.589 528.225L948.589 714.808"/>
<path class="l1" d="M129.698 341.642L606.521 341.642"/>
<path class="l1" d="M855.298 372.739L948.589 372.739"/>
<path class="l1" d="M606.521 341.642L679.081 341.642"/>
<path class="l1" d="M606.521 362.374L679.081 362.374"/>
<path class="l1" d="M606.521 383.105L679.081 383.105"/>
<path class="l1" d="M647.983 403.837L668.715 403.837"/>
<path class="l1" d="M647.983 403.837L647.983 714.808"/>
<path class="l1" d="M668.715 403.837L679.081 403.837"/>
<path class="l1" d="M1166.27 175.791L1218.1 175.791"/>
<path class="l1" d="M1218.1 507.494L1218.1 528.225"/>
<path class="l1" d="M1389.13 714.808L1689.74 714.808"/>
<path class="l1" d="M1632.73 222.437L1632.73 326.094"/>
<path class="l1" d="M1041.88 134.328L1290.66 134.328"/>
<path class="l1" d="M1632.73 0L1632.73 51.4026"/>
<path class="l1" d="M1653.46 0L1653.46 82.4997"/>
<path class="l1" d="M1777.85 274.265L1777.85 429.751"/>
<path class="l1" d="M1632.73 460.848L1777.85 460.848"/>
<path class="l1" d="M1777.85 491.945L1777.85 533.408"/>
<path class="l1" d="M1632.73 533.408L1777.85 533.408"/>
<path class="l1" d="M285.184 279.448L285.184 383.105"/>
<path class="l1" d="M1218.1 528.225L1218.1 569.688"/>
<path class="l1" d="M1218.1 631.882L1218.1 714.808"/>
<path class="l1" d="M285.184 61.7683L285.184 279.448"/>
<path class="l1" d="M1218.1 175.791L1218.1 227.62"/>
<path class="l1" d="M1041.88 486.762L1041.88 714.808"/>
<path class="l1" d="M1145.54 466.031L1145.54 507.494"/>
<path class="l1" d="M1041.88 507.494L1145.54 507.494"/>
<path class="l1" d="M1145.54 414.202L1197.37 414.202"/>
<path class="l1" d="M1218.1 310.545L1218.1 372.739"/>
<path class="l1" d="M1083.34 372.739L1145.54 372.739"/>
<path class="l1" d="M1145.54 372.739L1145.54 466.031"/>
<path class="l1" d="M1145.54 269.082L1197.37 269.082"/>
<path class="l1" d="M1145.54 269.082L1145.54 372.739"/>
<path class="l1" d="M844.932 0L844.932 30.6712"/>
<path class="l1" d="M129.698 0L129.698 341.642"/>
<path class="l1" d="M844.932 30.6712L948.589 30.6712"/>
<path class="l1" d="M222.99 30.6712L285.184 30.6712"/>
<path class="l1" d="M222.99 0L222.99 30.6712"/>
<path class="l1" d="M326.647 30.6712L844.932 30.6712"/>
<path class="l1" d="M948.589 0L948.589 30.6712"/>
<path class="l1" d="M948.589 30.6712L948.589 82.4997"/>
<path class="l1" d="M492.498 0L492.498 580.053"/>
<path class="l1" d="M1083.34 714.808L1389.13 714.808"/>
<path class="l1" d="M1218.1 175.791L1383.95 175.791"/>
<path class="l1" d="M1383.95 175.791L1383.95 445.299"/>
<path class="l1" d="M1383.95 517.859L1383.95 714.808"/>
<path class="l1" d="M1290.66 134.328L1425.41 134.328"/>
<path class="l1" d="M1632.73 398.654L1632.73 714.808"/>
<path class="l1" d="M1425.41 134.328L1591.26 134.328"/>
<path class="l1" d="M1632.73 134.328L1653.46 134.328"/>
<path class="l1" d="M1653.46 82.4997L1653.46 134.328"/>
<path class="l1" d="M1632.73 51.4026L1632.73 98.0482"/>
<path class="l1" d="M1632.73 165.425L1632.73 222.437"/>
<path class="l1" d="M1632.73 274.265L1777.85 274.265"/>
<path class="l1" d="M77.8697 714.808L129.698 714.808"/>
<path class="l1" d="M98.6011 476.396L98.6011 714.808"/>
<path class="l1" d="M98.6011 476.396L160.795 476.396"/>
<path class="l1" d="M1881.5 460.848L1920 460.848"/>
<path class="l1" d="M1689.74 714.808L1920 714.808"/>
<circle class="l1" cx="844.932" cy="30.6712" r="1.91766"/>
<circle class="l1" cx="285.184" cy="383.105" r="1.91766"/>
<circle class="l1" cx="98.6011" cy="714.808" r="1.91766"/>
<circle class="l1" cx="285.184" cy="383.105" r="1.91766"/>
<circle class="l1" cx="285.184" cy="714.808" r="1.91766"/>
<circle class="l1" cx="388.841" cy="714.808" r="1.91766"/>
<circle class="l1" cx="388.841" cy="611.151" r="1.91766"/>
<circle class="l1" cx="285.184" cy="383.105" r="1.91766"/>
<circle class="l1" cx="285.184" cy="714.808" r="1.91766"/>
<circle class="l1" cx="388.841" cy="714.808" r="1.91766"/>
<circle class="l1" cx="492.498" cy="714.808" r="1.91766"/>
<circle class="l1" cx="388.841" cy="611.151" r="1.91766"/>
<circle class="l1" cx="388.841" cy="714.808" r="1.91766"/>
<circle class="l1" cx="285.184" cy="714.808" r="1.91766"/>
<circle class="l1" cx="388.841" cy="611.151" r="1.91766"/>
<circle class="l1" cx="844.932" cy="30.6712" r="1.91766"/>
<circle class="l1" cx="948.589" cy="30.6712" r="1.91766"/>
<circle class="l1" cx="844.932" cy="30.6712" r="1.91766"/>
<circle class="l1" cx="647.983" cy="714.808" r="1.91766"/>
<circle class="l1" cx="948.589" cy="372.739" r="1.91766"/>
<circle class="l1" cx="492.498" cy="362.374" r="1.91766"/>
<circle class="l1" cx="492.498" cy="714.808" r="1.91766"/>
<circle class="l1" cx="492.498" cy="714.808" r="1.91766"/>
<circle class="l1" cx="1218.1" cy="175.791" r="1.91766"/>
<circle class="l1" cx="948.589" cy="30.6712" r="1.91766"/>
<circle class="l1" cx="948.589" cy="30.6712" r="1.91766"/>
<circle class="l1" cx="1145.54" cy="372.739" r="1.91766"/>
<circle class="l1" cx="1218.1" cy="175.791" r="1.91766"/>
<circle class="l1" cx="1041.88" cy="134.328" r="1.91766"/>
<circle class="l1" cx="1218.1" cy="175.791" r="1.91766"/>
<circle class="l1" cx="1041.88" cy="82.4997" r="1.91766"/>
<circle class="l1" cx="1145.54" cy="372.739" r="1.91766"/>
<circle class="l1" cx="1145.54" cy="372.739" r="1.91766"/>
<circle class="l1" cx="1145.54" cy="414.202" r="1.91766"/>
<circle class="l1" cx="1041.88" cy="507.494" r="1.91766"/>
<circle class="l1" cx="1041.88" cy="714.808" r="1.91766"/>
<circle class="l1" cx="1218.1" cy="714.808" r="1.91766"/>
<circle class="l1" cx="948.589" cy="714.808" r="1.91766"/>
<circle class="l1" cx="948.589" cy="372.739" r="1.91766"/>
<circle class="l1" cx="948.589" cy="372.739" r="1.91766"/>
<circle class="l1" cx="1632.73" cy="274.265" r="1.91766"/>
<circle class="l1" cx="1632.73" cy="714.808" r="1.91766"/>
<circle class="l1" cx="1383.95" cy="714.808" r="1.91766"/>
<circle class="l1" cx="1632.73" cy="533.408" r="1.91766"/>
<circle class="l1" cx="1632.73" cy="460.848" r="1.91766"/>
<text fill="#222222"  xml:space="preserve" font-size="21.5607" transform="translate(140.064, 589.265)" >big diode</text>
<text fill="#222222"  xml:space="preserve" font-size="21.5607" transform="translate(523.595, 578.899)" >small diode</text>
<text fill="#222222"  xml:space="preserve" font-size="21.5607" transform="translate(1829.67, 449.328)" >reset of</text>
<text fill="#222222"  xml:space="preserve" font-size="21.5607" transform="translate(1829.67, 474.058)" >capacitor</text>
<text fill="#222222"  xml:space="preserve" font-size="21.5607" transform="translate(1280.29, 257.562)" >reference voltage</text>
<text fill="#222222"  xml:space="preserve" font-size="21.5607" transform="translate(1280.29, 282.292)" >(temperature invariant)</text>
<text fill="#222222"  xml:space="preserve" font-size="21.5607" transform="translate(285.184, 195.368)" >&lt;-- I_left = I_right --&gt;</text>
<text fill="#222222"  xml:space="preserve" font-size="21.5607" transform="translate(1653.46, 304.208)" >charging</text>
<text fill="#222222"  xml:space="preserve" font-size="21.5607" transform="translate(1653.46, 328.938)" >capacitor</text>
</svg>
